# xmcd CD database file
#
# Track frame offsets:
#	150
#	20592
#	41865
#	64092
#	84155
#	100310
#
# Disc length: 1645 seconds
#
# Revision: 0
# Processed by: cddbd v1.5.1PL2 Copyright (c) Steve Scherf et al.
# Submitted via: CDex 1.51
#
DISCID=46066b06
DTITLE=サラブレンド - 君といた場所
DYEAR=2005
DGENRE=Rock
TTITLE0=カワルガワル。
TTITLE1=君といた場所
TTITLE2=空に舞う
TTITLE3=ゆれる
TTITLE4=羽根(acoustic session)
TTITLE5=夕焼けの色(インディーズ音源)
EXTD=YEAR: 2005
EXTT0=
EXTT1=
EXTT2=
EXTT3=
EXTT4=
EXTT5=
PLAYORDER=
